<svg width="100" height="158" viewBox="0 0 100 158" fill="none" xmlns="http://www.w3.org/2000/svg">
<path d="M100 50C100 77.6142 77.6142 158 50 158C22.3858 158 0 77.6142 0 50C0 22.3858 22.3858 0 50 0C77.6142 0 100 22.3858 100 50Z" fill="#EA9D29"/>
<path d="M83.7215 48.8608C83.7215 67.5615 68.5615 122 49.8608 122C31.16 122 16 67.5615 16 48.8608C16 30.16 31.16 15 49.8608 15C68.5615 15 83.7215 30.16 83.7215 48.8608Z" fill="#E4661E"/>
<path d="M77.0633 52.5316C77.0633 67.737 64.7369 89.5 49.5316 89.5C34.3263 89.5 22 67.737 22 52.5316C22 37.3263 34.3263 25 49.5316 25C64.7369 25 77.0633 37.3263 77.0633 52.5316Z" fill="#DF2D07"/>
</svg>
