<svg width="87" height="74" viewBox="0 0 87 74" fill="none" xmlns="http://www.w3.org/2000/svg">
<mask id="path-1-outside-1_9_25" maskUnits="userSpaceOnUse" x="-2.10287" y="-1.06863" width="90.4941" height="76.0267" fill="black">
<rect fill="white" x="-2.10287" y="-1.06863" width="90.4941" height="76.0267"/>
<path fill-rule="evenodd" clip-rule="evenodd" d="M27.1435 71.0352C129.604 56.9601 71.7492 -50.2148 33.4768 35.5927C32.7372 37.2507 30.0446 37.4177 28.8682 36.0349C24.8594 31.3227 18.1685 29.4104 12.0646 31.7534C4.33058 34.7223 0.46761 43.3986 3.43643 51.1327C6.40524 58.8667 16.9686 72.433 27.1435 71.0352ZM28.318 68.6268C111.325 57.2241 64.9868 -29.2922 33.8536 38.945C33.1 40.5967 30.3606 40.7455 29.0799 39.4588C25.7767 36.1399 20.7046 34.8864 16.0518 36.6724C9.76048 39.0875 6.61809 46.1454 9.03312 52.4367C11.4481 58.7281 20.041 69.7638 28.318 68.6268Z"/>
</mask>
<path fill-rule="evenodd" clip-rule="evenodd" d="M27.1435 71.0352C129.604 56.9601 71.7492 -50.2148 33.4768 35.5927C32.7372 37.2507 30.0446 37.4177 28.8682 36.0349C24.8594 31.3227 18.1685 29.4104 12.0646 31.7534C4.33058 34.7223 0.46761 43.3986 3.43643 51.1327C6.40524 58.8667 16.9686 72.433 27.1435 71.0352ZM28.318 68.6268C111.325 57.2241 64.9868 -29.2922 33.8536 38.945C33.1 40.5967 30.3606 40.7455 29.0799 39.4588C25.7767 36.1399 20.7046 34.8864 16.0518 36.6724C9.76048 39.0875 6.61809 46.1454 9.03312 52.4367C11.4481 58.7281 20.041 69.7638 28.318 68.6268Z" fill="#B73838"/>
<path d="M27.1435 71.0352L26.8713 69.0538L26.8713 69.0538L27.1435 71.0352ZM12.0646 31.7534L12.7813 33.6206L12.7813 33.6206L12.0646 31.7534ZM28.318 68.6268L28.5901 70.6082L28.5901 70.6082L28.318 68.6268ZM16.0518 36.6724L16.7686 38.5396L16.7686 38.5396L16.0518 36.6724ZM9.03312 52.4367L7.16596 53.1535L7.16596 53.1535L9.03312 52.4367ZM33.8536 38.945L35.6731 39.7751L33.8536 38.945ZM28.8682 36.0349L27.3449 37.3309L28.8682 36.0349ZM35.3033 36.4074C44.7901 15.1378 55.202 6.52141 63.4256 4.91412C71.4035 3.35486 78.2208 8.27937 81.2041 16.5375C84.1785 24.7708 83.1498 36.087 75.1675 46.2579C67.1905 56.4222 52.1359 65.5832 26.8713 69.0538L27.4157 73.0166C53.3815 69.4497 69.5179 59.9356 78.3142 48.7275C87.1052 37.526 88.4321 24.7723 84.9662 15.1784C81.5093 5.60943 73.0905 -1.05056 62.6583 0.9884C52.4718 2.97934 41.2996 13.1439 31.6502 34.778L35.3033 36.4074ZM12.7813 33.6206C18.0685 31.5911 23.8688 33.2448 27.3449 37.3309L30.3916 34.739C25.8501 29.4006 18.2686 27.2297 11.3479 29.8863L12.7813 33.6206ZM5.30359 50.4159C2.73061 43.7131 6.07852 36.1936 12.7813 33.6206L11.3479 29.8863C2.58264 33.2509 -1.79539 43.0842 1.56927 51.8494L5.30359 50.4159ZM26.8713 69.0538C22.7321 69.6224 18.1467 67.1418 13.985 63.0775C9.89034 59.0786 6.67644 53.9923 5.30359 50.4159L1.56927 51.8494C3.16523 56.007 6.7174 61.5709 11.1903 65.9392C15.5962 70.2421 21.3799 73.8457 27.4157 73.0166L26.8713 69.0538ZM35.6731 39.7751C43.3714 22.9022 51.7116 16.2932 58.1424 15.1614C64.3415 14.0704 69.6785 17.9688 72.0012 24.5835C74.3132 31.1676 73.4485 40.205 67.011 48.3417C60.5781 56.4726 48.4482 63.8427 28.0458 66.6454L28.5901 70.6082C49.691 67.7095 62.8965 59.9891 70.1479 50.8235C77.3948 41.6638 78.5636 31.1989 75.7753 23.2583C72.9977 15.3482 66.1007 9.69935 57.4491 11.2219C49.0293 12.7038 39.9023 20.8692 32.034 38.1148L35.6731 39.7751ZM16.7686 38.5396C20.6558 37.0474 24.8973 38.0915 27.6624 40.8697L30.4975 38.0479C26.6561 34.1883 20.7534 32.7254 15.3351 34.8053L16.7686 38.5396ZM10.9003 51.72C8.88109 46.4598 11.5084 40.5588 16.7686 38.5396L15.3351 34.8053C8.01253 37.6161 4.35509 45.8309 7.16596 53.1535L10.9003 51.72ZM28.0458 66.6454C24.8556 67.0836 21.2373 65.1705 17.8747 61.8865C14.5791 58.668 11.9962 54.5751 10.9003 51.72L7.16596 53.1535C8.48503 56.5898 11.4061 61.1604 15.0799 64.7482C18.6868 68.2707 23.5034 71.3069 28.5901 70.6082L28.0458 66.6454ZM32.034 38.1148C32.0336 38.1156 32.0325 38.1187 32.025 38.1268C32.0162 38.1361 31.9948 38.1561 31.9527 38.181C31.8629 38.234 31.706 38.2924 31.4887 38.3115C31.0022 38.3544 30.6302 38.1813 30.4975 38.0479L27.6624 40.8697C28.8103 42.023 30.4484 42.4188 31.8401 42.2961C33.2276 42.1737 34.9002 41.4693 35.6731 39.7751L32.034 38.1148ZM31.6502 34.778C31.6483 34.7824 31.6457 34.7871 31.6382 34.7954C31.6297 34.8046 31.6104 34.823 31.5733 34.8455C31.4944 34.8933 31.3571 34.9455 31.17 34.9611C30.7459 34.9965 30.4708 34.8322 30.3916 34.739L27.3449 37.3309C28.442 38.6205 30.1015 39.0641 31.5026 38.9472C32.9056 38.8302 34.5509 38.0944 35.3033 36.4074L31.6502 34.778Z" fill="#414141" mask="url(#path-1-outside-1_9_25)"/>
</svg>
